HIERARCHY
ROOT Hips
{
  OFFSET 76.347 92.6806 -49.6304
  CHANNELS 6 Xposition Yposition Zposition Zrotation Xrotation Yrotation
  JOINT RightUpLeg
  {
    OFFSET -9.2536 -1.56971 -0.009835
    CHANNELS 3 Zrotation Xrotation Yrotation
    JOINT RightLeg
    {
      OFFSET 0.003613 -41.8721 0.033096
      CHANNELS 3 Zrotation Xrotation Yrotation
      JOINT RightFoot
      {
        OFFSET 0.190023 -41.7536 -0.162077
        CHANNELS 3 Zrotation Xrotation Yrotation
        End Site
        {
          OFFSET 0 -7.69 17.5
        }
      }
    }
  }
  JOINT LeftUpLeg
  {
    OFFSET 9.25993 -1.60807 -0.003591
    CHANNELS 3 Zrotation Xrotation Yrotation
    JOINT LeftLeg
    {
      OFFSET 0.056181 -41.8768 -0.046918
      CHANNELS 3 Zrotation Xrotation Yrotation
      JOINT LeftFoot
      {
        OFFSET 0.206009 -42.0177 -0.454554
        CHANNELS 3 Zrotation Xrotation Yrotation
        End Site
        {
          OFFSET 0 -7.69 17.5
        }
      }
    }
  }
  JOINT Spine
  {
    OFFSET 0.055174 14.3087 0.014143
    CHANNELS 3 Zrotation Xrotation Yrotation
    JOINT Spine1
    {
      OFFSET 0.013927 9.70629 0.00545
      CHANNELS 3 Zrotation Xrotation Yrotation
      JOINT Spine2
      {
        OFFSET 0.014023 10.1242 0.014512
        CHANNELS 3 Zrotation Xrotation Yrotation
        JOINT Spine3
        {
          OFFSET 0.012086 9.7191 0.009001
          CHANNELS 3 Zrotation Xrotation Yrotation
          JOINT Neck
          {
            OFFSET 0.131707 10.3859 0.054297
            CHANNELS 3 Zrotation Xrotation Yrotation
            JOINT Head
            {
              OFFSET -0.005552 9.48088 0.122183
              CHANNELS 3 Zrotation Xrotation Yrotation
              End Site
              {
                OFFSET 0 15.95 0
              }
            }
          }
          JOINT RightShoulder
          {
            OFFSET -3.20137 6.92944 0.018295
            CHANNELS 3 Zrotation Xrotation Yrotation
            JOINT RightArm
            {
              OFFSET -12.7595 0.009634 0.00435
              CHANNELS 3 Zrotation Xrotation Yrotation
              JOINT RightForeArm
              {
                OFFSET -26.5076 -0.004773 -0.015002
                CHANNELS 3 Zrotation Xrotation Yrotation
                JOINT RightHand
                {
                  OFFSET -26.002 -5.9e-05 -0.011656
                  CHANNELS 3 Zrotation Xrotation Yrotation
                  JOINT RightHandThumb1
                  {
                    OFFSET -2.48905 0.190105 3.12053
                    CHANNELS 3 Zrotation Xrotation Yrotation
                    JOINT RightHandThumb2
                    {
                      OFFSET -3.68274 0 0
                      CHANNELS 3 Zrotation Xrotation Yrotation
                      JOINT RightHandThumb3
                      {
                        OFFSET -2.55832 0 0
                        CHANNELS 3 Zrotation Xrotation Yrotation
                        End Site
                        {
                          OFFSET -2.194 0 0
                        }
                      }
                    }
                  }
                  JOINT RightInHandIndex
                  {
                    OFFSET -3.22368 0.508421 1.97842
                    CHANNELS 3 Zrotation Xrotation Yrotation
                    JOINT RightHandIndex1
                    {
                      OFFSET -5.21684 -0.091368 0.999158
                      CHANNELS 3 Zrotation Xrotation Yrotation
                      JOINT RightHandIndex2
                      {
                        OFFSET -3.61937 0 0
                        CHANNELS 3 Zrotation Xrotation Yrotation
                        JOINT RightHandIndex3
                        {
                          OFFSET -2.0521 0 0
                          CHANNELS 3 Zrotation Xrotation Yrotation
                          End Site
                          {
                            OFFSET -1.805 0 0
                          }
                        }
                      }
                    }
                  }
                  JOINT RightInHandMiddle
                  {
                    OFFSET -3.38211 0.517263 0.756737
                    CHANNELS 3 Zrotation Xrotation Yrotation
                    JOINT RightHandMiddle1
                    {
                      OFFSET -5.17411 -0.084 0.313895
                      CHANNELS 3 Zrotation Xrotation Yrotation
                      JOINT RightHandMiddle2
                      {
                        OFFSET -3.94947 0 0
                        CHANNELS 3 Zrotation Xrotation Yrotation
                        JOINT RightHandMiddle3
                        {
                          OFFSET -2.47579 0 0
                          CHANNELS 3 Zrotation Xrotation Yrotation
                          End Site
                          {
                            OFFSET -1.975 0 0
                          }
                        }
                      }
                    }
                  }
                  JOINT RightInHandRing
                  {
                    OFFSET -3.36516 0.537895 -0.128947
                    CHANNELS 3 Zrotation Xrotation Yrotation
                    JOINT RightHandRing1
                    {
                      OFFSET -4.63474 -0.022105 -0.478947
                      CHANNELS 3 Zrotation Xrotation Yrotation
                      JOINT RightHandRing2
                      {
                        OFFSET -3.44238 0 0
                        CHANNELS 3 Zrotation Xrotation Yrotation
                        JOINT RightHandRing3
                        {
                          OFFSET -2.3881 0 0
                          CHANNELS 3 Zrotation Xrotation Yrotation
                          End Site
                          {
                            OFFSET -1.857 0 0
                          }
                        }
                      }
                    }
                  }
                  JOINT RightInHandPinky
                  {
                    OFFSET -3.16105 0.469368 -1.20179
                    CHANNELS 3 Zrotation Xrotation Yrotation
                    JOINT RightHandPinky1
                    {
                      OFFSET -4.14105 -0.022105 -1.09053
                      CHANNELS 3 Zrotation Xrotation Yrotation
                      JOINT RightHandPinky2
                      {
                        OFFSET -2.75653 0 0
                        CHANNELS 3 Zrotation Xrotation Yrotation
                        JOINT RightHandPinky3
                        {
                          OFFSET -1.74189 0 0
                          CHANNELS 3 Zrotation Xrotation Yrotation
                          End Site
                          {
                            OFFSET -1.645 0 0
                          }
                        }
                      }
                    }
                  }
                }
              }
            }
          }
          JOINT LeftShoulder
          {
            OFFSET 3.20143 6.91127 -0.000395
            CHANNELS 3 Zrotation Xrotation Yrotation
            JOINT LeftArm
            {
              OFFSET 12.7779 -0.028682 -0.037301
              CHANNELS 3 Zrotation Xrotation Yrotation
              JOINT LeftForeArm
              {
                OFFSET 26.4982 -0.116492 -0.017681
                CHANNELS 3 Zrotation Xrotation Yrotation
                JOINT LeftHand
                {
                  OFFSET 26.0046 -0.058588 -0.01331
                  CHANNELS 3 Zrotation Xrotation Yrotation
                  JOINT LeftHandThumb1
                  {
                    OFFSET 2.48905 0.190105 3.12053
                    CHANNELS 3 Zrotation Xrotation Yrotation
                    JOINT LeftHandThumb2
                    {
                      OFFSET 3.68274 0 0
                      CHANNELS 3 Zrotation Xrotation Yrotation
                      JOINT LeftHandThumb3
                      {
                        OFFSET 2.55832 0 0
                        CHANNELS 3 Zrotation Xrotation Yrotation
                        End Site
                        {
                          OFFSET 2.194 0 0
                        }
                      }
                    }
                  }
                  JOINT LeftInHandIndex
                  {
                    OFFSET 3.22368 0.508421 1.97842
                    CHANNELS 3 Zrotation Xrotation Yrotation
                    JOINT LeftHandIndex1
                    {
                      OFFSET 5.21684 -0.091368 0.999158
                      CHANNELS 3 Zrotation Xrotation Yrotation
                      JOINT LeftHandIndex2
                      {
                        OFFSET 3.61937 0 0
                        CHANNELS 3 Zrotation Xrotation Yrotation
                        JOINT LeftHandIndex3
                        {
                          OFFSET 2.0521 0 0
                          CHANNELS 3 Zrotation Xrotation Yrotation
                          End Site
                          {
                            OFFSET 1.805 0 0
                          }
                        }
                      }
                    }
                  }
                  JOINT LeftInHandMiddle
                  {
                    OFFSET 3.38211 0.517263 0.756737
                    CHANNELS 3 Zrotation Xrotation Yrotation
                    JOINT LeftHandMiddle1
                    {
                      OFFSET 5.17411 -0.084 0.313895
                      CHANNELS 3 Zrotation Xrotation Yrotation
                      JOINT LeftHandMiddle2
                      {
                        OFFSET 3.94947 0 0
                        CHANNELS 3 Zrotation Xrotation Yrotation
                        JOINT LeftHandMiddle3
                        {
                          OFFSET 2.47579 0 0
                          CHANNELS 3 Zrotation Xrotation Yrotation
                          End Site
                          {
                            OFFSET 1.975 0 0
                          }
                        }
                      }
                    }
                  }
                  JOINT LeftInHandRing
                  {
                    OFFSET 3.36516 0.537895 -0.128947
                    CHANNELS 3 Zrotation Xrotation Yrotation
                    JOINT LeftHandRing1
                    {
                      OFFSET 4.63474 -0.022105 -0.478947
                      CHANNELS 3 Zrotation Xrotation Yrotation
                      JOINT LeftHandRing2
                      {
                        OFFSET 3.44238 0 0
                        CHANNELS 3 Zrotation Xrotation Yrotation
                        JOINT LeftHandRing3
                        {
                          OFFSET 2.3881 0 0
                          CHANNELS 3 Zrotation Xrotation Yrotation
                          End Site
                          {
                            OFFSET 1.857 0 0
                          }
                        }
                      }
                    }
                  }
                  JOINT LeftInHandPinky
                  {
                    OFFSET 3.16105 0.469368 -1.20179
                    CHANNELS 3 Zrotation Xrotation Yrotation
                    JOINT LeftHandPinky1
                    {
                      OFFSET 4.14105 -0.022105 -1.09053
                      CHANNELS 3 Zrotation Xrotation Yrotation
                      JOINT LeftHandPinky2
                      {
                        OFFSET 2.75653 0 0
                        CHANNELS 3 Zrotation Xrotation Yrotation
                        JOINT LeftHandPinky3
                        {
                          OFFSET 1.74189 0 0
                          CHANNELS 3 Zrotation Xrotation Yrotation
                          End Site
                          {
                            OFFSET 1.645 0 0
                          }
                        }
                      }
                    }
                  }
                }
              }
            }
          }
        }
      }
    }
  }
}
MOTION
Frames: 3
Frame Time: 0.00833333
1.499989082213477616e+02 -6.277019000852500363e-03 1.079453425732459886e-02 9.072722440034668503e-03 -7.980816438230243712e-03 5.918255057770226146e-02 -9.833501260513118070e-02 -1.442806533880738352e-02 -8.991773810630163122e-02 5.927525362594276981e-03 1.527680994242063515e-02 -1.097110712255717525e-02 1.360169392814893422e-02 -1.366463652393544795e-02 -5.594607151608978549e-03 -4.753480529548311656e-02 -1.953280213473520405e-02 -1.308534323397889630e-02 -3.227752864312112557e-02 -7.614029383982712229e-02 9.915152928976647684e-02 3.383649628746353277e-02 5.907090045277228058e-02 -1.343111991785290726e-01 2.005222012785121966e-01 -6.722363976962275611e-01 -1.674771120395087132e-01 -5.065878354846497893e-03 6.329383946454482102e-01 1.112136294032733536e-01 2.187073648854970936e-03 6.908028881822378398e-02 1.501853337684864141e-02 -2.699087579530369953e-04 2.672124969942709597e-03 -5.756707718650125750e-04 8.972405322892357954e-03 3.623806784265142661e-02 -1.621973719175501261e-02 7.201197267146916027e-03 8.238549822996325128e-03 -2.152957509507022124e-02 7.761546983770759543e-03 -8.201462654568685137e-04 1.889416263273681687e-02 -3.183791250897606284e-01 3.087792392321580537e-01 2.057128960499904902e-01 -2.188122582924011539e+01 2.365807640879390439e-01 -2.210975621772956146e+01 9.041204714112220653e-02 -3.685199876387003637e-01 3.246761190932965779e-01 0.000000000000000000e+00 0.000000000000000000e+00 0.000000000000000000e+00 1.036663113461521967e-14 -2.862533147419293434e-15 0.000000000000000000e+00 9.316014328831930601e-16 4.838819414199105133e-15 0.000000000000000000e+00 2.365862657383660436e-15 -2.690469748669583874e-15 -8.700347925616589303e-16 0.000000000000000000e+00 0.000000000000000000e+00 0.000000000000000000e+00 0.000000000000000000e+00 1.715435756489724277e-15 3.576350637342817204e-15 0.000000000000000000e+00 3.444259010761621797e-15 1.612395527726719282e-14 2.365862657383660436e-15 -2.690469748669583874e-15 -8.700347925616589303e-16 0.000000000000000000e+00 -6.568111306587722112e-15 -3.583635971669837814e-15 0.000000000000000000e+00 2.144891104369227046e-15 1.053340768411400915e-15 0.000000000000000000e+00 6.271801448467607525e-16 -1.425993052096756361e-14 2.365862657383660436e-15 -2.690469748669583874e-15 -8.700347925616589303e-16 0.000000000000000000e+00 0.000000000000000000e+00 0.000000000000000000e+00 0.000000000000000000e+00 -3.861529095276430687e-15 -1.130424528790847167e-14 0.000000000000000000e+00 -1.271500771184319946e-15 4.344511549575960919e-16 2.365862657383660436e-15 -2.690469748669583874e-15 -8.700347925616589303e-16 0.000000000000000000e+00 0.000000000000000000e+00 0.000000000000000000e+00 0.000000000000000000e+00 -5.248868818015699130e-15 -7.011383303680720212e-15 0.000000000000000000e+00 -1.568636075973583806e-17 3.433439585880685508e-16 4.022984165569907025e-03 6.959100400023471127e-03 -1.706648125157229565e-02 -1.138116522055881291e-01 -3.792232601153788102e-02 1.570051716991435753e-01 6.105519519822445035e-02 -3.248043583961386371e-01 2.176775580130474730e-01 -2.020854718832921115e+00 6.319846209577447693e-01 -2.079567650543943103e+00 0.000000000000000000e+00 0.000000000000000000e+00 0.000000000000000000e+00 6.427727129012042186e-15 -2.168266252647308644e-15 0.000000000000000000e+00 5.998417239300094067e-15 -5.465220732771841818e-15 0.000000000000000000e+00 2.113632109540619086e-15 -9.935657646823854343e-17 3.987886035437182203e-16 0.000000000000000000e+00 0.000000000000000000e+00 0.000000000000000000e+00 0.000000000000000000e+00 3.601129196306586719e-15 6.553624770950933278e-15 0.000000000000000000e+00 1.228445230838399737e-15 -1.864183262985616517e-15 2.113632109540619086e-15 -9.935657646823854343e-17 3.987886035437182203e-16 0.000000000000000000e+00 2.365242364683185296e-15 -7.622977760630232296e-15 0.000000000000000000e+00 1.464102860420019665e-15 2.900866892630161170e-16 0.000000000000000000e+00 -5.056409008035134089e-16 2.722259285487663866e-15 2.113632109540619086e-15 -9.935657646823854343e-17 3.987886035437182203e-16 0.000000000000000000e+00 0.000000000000000000e+00 0.000000000000000000e+00 0.000000000000000000e+00 -8.987775952781691401e-16 -6.669436416707973213e-16 0.000000000000000000e+00 -1.882815472416507081e-15 2.793530741879271110e-15 2.113632109540619086e-15 -9.935657646823854343e-17 3.987886035437182203e-16 0.000000000000000000e+00 0.000000000000000000e+00 0.000000000000000000e+00 0.000000000000000000e+00 -5.139361888201124594e-15 8.618016319334737461e-16 0.000000000000000000e+00 2.743128769742273117e-15 5.770667703761730530e-15
1.500056122076685767e+02 -1.565147814245286192e-02 -9.975671875199385377e-03 -5.812572160041530600e-03 8.720812998254105775e-03 -4.479609691767097446e-02 8.116268298350234889e-02 1.417681211537697578e-02 8.154010869510426585e-02 -6.919322177713753755e-03 -7.933375174793130813e-03 -2.452244191527356600e-03 -1.023900174445403245e-02 6.396181825754371914e-03 5.358202668545607172e-03 4.129921314647548580e-02 1.943120559832624966e-02 4.437904839915519928e-02 -3.722594897718082413e-02 -6.440979419859786670e-02 1.231568615649429876e-01 -1.710127584625721620e-02 -3.739802450701155967e-02 -9.704880510029048613e-02 2.009800783833395887e-01 -7.566319445552386336e-01 -1.641825396554732752e-01 -1.112171310308515682e-02 7.119947434187540170e-01 1.303475896156212344e-01 -5.184384205371091008e-03 7.258281634812253913e-02 2.410320884083738679e-02 -1.759287223139821457e-04 8.060368886820235782e-04 -3.335573660934142148e-04 -7.249225026850856374e-04 8.141481302628436958e-04 -9.702333814933631478e-03 1.405779401098560032e-04 -2.790474537553898782e-03 -6.925339933296720263e-03 -4.229576612139558309e-04 -3.682818267492902857e-03 -3.776512132722205373e-02 1.256979543006020612e-02 6.531448749614227056e-02 4.069620092206899936e-02 6.411323426798755776e+00 2.616954561289153158e-01 6.128841200757960905e+00 1.458980937557216029e-01 -4.876242329626065408e-01 4.881841269891693535e-01 0.000000000000000000e+00 0.000000000000000000e+00 0.000000000000000000e+00 1.146058820201301472e-15 -8.458310281489179200e-15 0.000000000000000000e+00 -5.642137602823866302e-18 -1.549200240532251518e-15 0.000000000000000000e+00 2.020561780820793517e-15 4.401226699076668022e-15 -8.369711844007438387e-15 0.000000000000000000e+00 0.000000000000000000e+00 0.000000000000000000e+00 0.000000000000000000e+00 -3.434607968901466208e-15 -1.813189033233202392e-15 0.000000000000000000e+00 1.015793064288707753e-14 2.305344286172214846e-14 2.020561780820793517e-15 4.401226699076668022e-15 -8.369711844007438387e-15 0.000000000000000000e+00 -3.735641033549881870e-15 -8.450440279952300005e-15 0.000000000000000000e+00 1.068173341243567303e-14 -2.762165276326417683e-15 0.000000000000000000e+00 -8.691535371865206457e-15 -9.424848129415131072e-15 2.020561780820793517e-15 4.401226699076668022e-15 -8.369711844007438387e-15 0.000000000000000000e+00 0.000000000000000000e+00 0.000000000000000000e+00 0.000000000000000000e+00 7.401778946514511902e-16 -1.853685332485495061e-14 0.000000000000000000e+00 -1.065109097578441716e-14 -9.957243166442923903e-15 2.020561780820793517e-15 4.401226699076668022e-15 -8.369711844007438387e-15 0.000000000000000000e+00 0.000000000000000000e+00 0.000000000000000000e+00 0.000000000000000000e+00 -1.120308839811031513e-14 8.899445241513132198e-15 0.000000000000000000e+00 2.474384814021649289e-15 3.355248575908285868e-15 9.364780833135129094e-04 1.528702198386599088e-03 -6.068204431195400178e-02 -7.716244416888133617e-02 -1.798063799037067506e-02 9.702027046006168887e-02 -1.461482503895132623e-02 1.525706489897703591e-02 1.825824966762264884e-02 -7.886031305202227948e-01 4.574025816743020334e-01 -1.036436936437415746e+00 0.000000000000000000e+00 0.000000000000000000e+00 0.000000000000000000e+00 9.767097071542148350e-15 4.640802156283993792e-15 0.000000000000000000e+00 1.103065706769741736e-14 -2.241312844811267798e-15 0.000000000000000000e+00 9.595531957304382599e-16 -2.942175512456032083e-15 -1.236300315185884753e-15 0.000000000000000000e+00 0.000000000000000000e+00 0.000000000000000000e+00 0.000000000000000000e+00 4.812468498298543143e-15 1.588963402378473559e-14 0.000000000000000000e+00 3.140133348304289147e-16 -1.603340828012752869e-15 9.595531957304382599e-16 -2.942175512456032083e-15 -1.236300315185884753e-15 0.000000000000000000e+00 5.658023477270145802e-15 -7.980536027030603732e-15 0.000000000000000000e+00 6.015847076329919358e-16 2.319071148163938296e-15 0.000000000000000000e+00 -1.162548783540409468e-15 7.504017801458531640e-15 9.595531957304382599e-16 -2.942175512456032083e-15 -1.236300315185884753e-15 0.000000000000000000e+00 0.000000000000000000e+00 0.000000000000000000e+00 0.000000000000000000e+00 -6.152252514322928645e-15 -1.610486408780086288e-15 0.000000000000000000e+00 -3.063055100562165369e-15 7.924958816682708463e-15 9.595531957304382599e-16 -2.942175512456032083e-15 -1.236300315185884753e-15 0.000000000000000000e+00 0.000000000000000000e+00 0.000000000000000000e+00 0.000000000000000000e+00 -8.072716311416689100e-15 4.389487129752113066e-15 0.000000000000000000e+00 1.742236170682092807e-16 1.597162203993935100e-14
1.500053027532763394e+02 -2.031582066728995772e-02 -8.852937053034973941e-03 -7.996449730046120002e-03 5.867884092389794026e-03 -5.133214717812417671e-02 8.678105480532320726e-02 1.511186779883589779e-02 8.480683744331907192e-02 -6.406567624258430703e-03 -9.545810772608631645e-03 1.451511491052297296e-03 -1.380774476713085563e-02 9.015957082241102608e-03 7.786900432024678430e-03 4.062809815454524603e-02 1.994321685939582506e-02 4.243837486652429769e-02 -3.863836060088091801e-02 -5.934171658232597485e-02 1.299797038831519980e-01 -4.182214554098128562e-02 -1.077371628583767976e-01 -9.134751153152688430e-02 2.058226550995791160e-01 -7.775218021634063836e-01 -1.761777920769487527e-01 -1.228651810517647318e-02 7.395219569245743418e-01 1.326258118665785413e-01 -5.686701789853421118e-03 6.390044079678683375e-02 1.948592515984618606e-02 -1.054628154507430369e-04 3.385422639960463764e-04 6.005550564741980924e-06 -4.823441606583208908e-05 -7.722317404297062218e-03 -2.965834260380648558e-03 -1.029068471810755159e-04 -3.915165986988261917e-03 -5.825375215910775627e-04 -2.731572424894855664e-03 -2.430533893141814759e-03 -2.832475774885090739e-02 1.643851477792242499e-01 -1.068729863884476938e-01 -6.196011860591644355e-02 1.392150548724363013e+01 3.660198592742818779e-01 1.360432781569079452e+01 1.425265505460633353e-01 -4.754864291957396905e-01 4.802987774808523680e-01 0.000000000000000000e+00 0.000000000000000000e+00 0.000000000000000000e+00 -3.086910113216167256e-15 -8.668705260662153543e-16 0.000000000000000000e+00 1.744646570569876260e-16 5.739387975350649988e-16 0.000000000000000000e+00 5.605508592894078772e-17 -7.188066267554504520e-16 -5.532851914687901003e-15 0.000000000000000000e+00 0.000000000000000000e+00 0.000000000000000000e+00 0.000000000000000000e+00 -1.720768315223210424e-15 1.785468846841900936e-16 0.000000000000000000e+00 -1.955539669312733218e-15 4.038911758902646823e-15 5.605508592894078772e-17 -7.188066267554504520e-16 -5.532851914687901003e-15 0.000000000000000000e+00 -2.706162051936877366e-15 -4.374927719727547058e-15 0.000000000000000000e+00 -1.343210122242223494e-15 -2.430178994981168078e-15 0.000000000000000000e+00 -2.623563310154214194e-15 -3.033021227072932305e-15 5.605508592894078772e-17 -7.188066267554504520e-16 -5.532851914687901003e-15 0.000000000000000000e+00 0.000000000000000000e+00 0.000000000000000000e+00 0.000000000000000000e+00 -7.351973463850841270e-16 -3.765400984652458483e-15 0.000000000000000000e+00 -2.531370082129142227e-15 -3.256713647648093010e-15 5.605508592894078772e-17 -7.188066267554504520e-16 -5.532851914687901003e-15 0.000000000000000000e+00 0.000000000000000000e+00 0.000000000000000000e+00 0.000000000000000000e+00 5.603548166524965598e-15 1.418881002470595910e-15 0.000000000000000000e+00 -4.169961906531753379e-15 -4.096980547659295240e-16 -1.477412321569584325e-03 9.967337208328427422e-05 -4.812887921652607426e-02 -1.582210625457861064e-01 -7.802540371971275479e-02 2.364706199273457210e-01 -1.592413848137928523e-01 3.264992060828518228e-01 -2.684230670690618270e-01 4.272228803198116487e-01 1.553466034627417891e-01 1.867476983325241369e-01 0.000000000000000000e+00 0.000000000000000000e+00 0.000000000000000000e+00 -5.515328772693675067e-15 -5.449753357040421708e-16 0.000000000000000000e+00 6.022008222907089436e-15 -1.642011657901206501e-15 0.000000000000000000e+00 -5.809966573747289715e-16 -8.916821567770136464e-16 -4.812151192977015404e-16 0.000000000000000000e+00 0.000000000000000000e+00 0.000000000000000000e+00 0.000000000000000000e+00 2.465735260164195258e-15 2.912566308301471426e-15 0.000000000000000000e+00 -7.432090394470865795e-16 5.436973435990247673e-16 -5.809966573747289715e-16 -8.916821567770136464e-16 -4.812151192977015404e-16 0.000000000000000000e+00 4.097001804450205546e-15 -1.998476299713961757e-15 0.000000000000000000e+00 4.511968247223184517e-15 4.754051200879485830e-16 0.000000000000000000e+00 3.955774651265650641e-16 -3.352270702809195423e-15 -5.809966573747289715e-16 -8.916821567770136464e-16 -4.812151192977015404e-16 0.000000000000000000e+00 0.000000000000000000e+00 0.000000000000000000e+00 0.000000000000000000e+00 1.804326079405298117e-16 -1.289424022393397106e-15 0.000000000000000000e+00 1.052451412592310645e-15 1.553252937649561134e-15 -5.809966573747289715e-16 -8.916821567770136464e-16 -4.812151192977015404e-16 0.000000000000000000e+00 0.000000000000000000e+00 0.000000000000000000e+00 0.000000000000000000e+00 -1.016864756312457719e-15 -4.520581509043246923e-15 0.000000000000000000e+00 7.567152315975220898e-16 -6.491149886422015654e-16
